<?xml version="1.0" encoding="iso-8859-1"?>
<!-- Generator: Adobe Illustrator 16.0.0, SVG Export Plug-In . SVG Version: 6.00 Build 0)  -->
<!DOCTYPE svg PUBLIC "-//W3C//DTD SVG 1.1//EN" "http://www.w3.org/Graphics/SVG/1.1/DTD/svg11.dtd">
<svg version="1.1" id="Capa_1" xmlns="http://www.w3.org/2000/svg" xmlns:xlink="http://www.w3.org/1999/xlink" x="0px" y="0px"
	 width="191.962px" height="191.962px" viewBox="0 0 191.962 191.962" style="enable-background:new 0 0 191.962 191.962;"
	 xml:space="preserve">
<g>
	<g>
		<path d="M170.638,76.337c-2.291-1.503-4.759-2.689-7.332-3.668c10.666-30.014-15.396-68.765-47.783-61.424
			c-2.166-5.054-6.225-8.544-13.617-10.105c-9.062-1.914-25.772-2.755-29.227,8.74c-0.004,0.012-0.006,0.025-0.01,0.038
			C43.416,12.643,26.05,43.996,29.216,71.499c-9.709,4.325-19.821,14.9-7.409,20.191c-0.902,1.262-0.296,3.369,1.767,3.61
			c2.844,0.332,5.689,0.548,8.536,0.69c-0.187,0.875-0.33,1.737-0.473,2.597c-3.333-1.533-7.887-0.215-10.62,1.957
			c-2.802,2.225-4.293,5.709-4.29,9.253c0.008,8.688,8.737,11.441,15.61,8.77c1.847,7.148,5.428,13.447,10.23,18.803
			c-9.672,11.515-23.563,35.278-12.887,49.661c0.848,1.144,2.212,1.24,3.145,0.658c40.899,7.43,83.429,2.575,124.704,4.104
			c2.317,0.086,3.888-2.588,2.873-4.597c18.342-14.164-6.846-45.683-21.046-54.366c2.665-4.132,4.88-8.644,6.568-13.494
			c8.13,2.247,17.146-3.483,18.411-11.803c1.317-8.652-5.81-13.873-13.867-11.186c-0.167,0.056-0.268,0.163-0.414,0.237
			c0.038-0.941,0.121-1.866,0.129-2.817c4.532,0.11,9.064,0.22,13.596,0.248c1.269,0.008,2.17-0.532,2.758-1.301
			c0.256-0.031,0.505-0.033,0.779-0.147C176.012,88.948,179.745,82.312,170.638,76.337z M22.817,109.795
			c-0.08-1.827,0.788-3.439,2.185-4.662c1.669-1.461,3.966-1.319,6.053-1.721c-0.293,3.959-0.118,7.744,0.479,11.34
			C27.616,115.008,23.023,114.469,22.817,109.795z M117.758,23.775c-0.092-3.12-0.376-5.97-0.957-8.536
			c14.386-0.519,26.022,5.846,33.85,18.409c7.309,11.732,7.044,24.098,6.612,37.166c-13.368-3.171-28.788-1.575-41.146-1.074
			c-0.031,0.001-0.062,0-0.093,0.002C123.546,58.692,118.126,36.211,117.758,23.775z M83.513,7.887
			c5.523-2.221,13.813-0.878,19.36,0.309c10.882,2.328,8.292,19.379,8.438,27.642c0.191,10.855,2.1,21.73-1.417,32.252
			c-0.226,0.677-0.187,1.243-0.045,1.749C99.225,70,88.671,69.596,78.086,69.009c-2.628-15.103-0.107-30.283-0.098-45.488
			C77.993,18.088,77.349,10.365,83.513,7.887z M71.254,17.433c-0.612,5.929-0.29,12.031-0.475,17.907
			c-0.358,11.383-0.913,22.663,3.074,33.427c-2.741-0.157-5.48-0.314-8.231-0.467c-9.63-0.534-21.519-1.269-31.418,1.446
			C36.609,47.131,46.047,21.337,71.254,17.433z M33.31,182.606c-0.466-3.341-0.47-6.593-0.151-9.782
			c1.735,1.957,3.523,3.866,5.411,5.695c1.313,1.272,2.781,2.904,4.375,4.344C39.733,182.776,36.528,182.693,33.31,182.606z
			 M48.694,183.018c-1.713-2.399-4.547-4.191-6.708-6.08c-2.855-2.497-5.63-5.08-8.324-7.748c0.24-1.323,0.54-2.635,0.881-3.937
			c3.086,4.028,6.241,8.005,9.65,11.766c1.607,1.773,3.628,4.096,5.889,6.033C49.619,183.037,49.157,183.029,48.694,183.018z
			 M58.132,183.241c-3.984-3.449-8.254-6.334-12.016-10.17c-3.658-3.729-7.065-7.698-10.405-11.715
			c0.536-1.605,1.153-3.194,1.799-4.775c4.508,5.698,9.283,11.187,14.367,16.377c3.028,3.091,7.204,7.597,11.679,10.396
			C61.747,183.313,59.94,183.284,58.132,183.241z M71.62,183.519c-0.078-0.233-0.189-0.456-0.377-0.634
			c-2.002-1.904-4.642-2.988-6.942-4.526c-3.506-2.344-6.676-5.204-9.779-8.047c-5.64-5.166-10.704-10.9-15.754-16.631
			c0.6-1.345,1.265-2.673,1.909-4.006c5.614,6.897,11.873,13.221,18.415,19.237c5.21,4.792,11.041,10.773,17.327,14.672
			C74.82,183.562,73.22,183.548,71.62,183.519z M82.225,183.663c-0.065-0.235-0.165-0.472-0.346-0.697
			c-5.268-6.559-13.679-11.292-20.144-16.694c-6.954-5.81-13.482-11.917-19.298-18.879c-0.153-0.183-0.319-0.303-0.489-0.38
			c1.131-2.252,2.302-4.491,3.481-6.72c0.012,0.012,0.026,0.021,0.038,0.032c-0.008,0.227,0.024,0.463,0.157,0.714
			c5.067,9.551,12.558,17.183,20.597,24.302c6.856,6.07,14.202,12.83,21.882,18.335C86.143,183.664,84.182,183.685,82.225,183.663z
			 M95.697,183.69c-6.547-7.547-16.39-13.29-24.091-19.456c-6.933-5.55-13.526-11.463-19.07-18.337
			c5.885,3.991,12.659,7.002,19.898,8.975c0.671,4.617,10.276,11.347,12.594,13.436c4.417,3.979,9.008,7.768,13.611,11.529
			c1.172,0.957,2.684,2.519,4.303,3.802C100.527,183.657,98.11,183.687,95.697,183.69z M109.064,183.579
			c-0.797-2.576-4.412-4.38-6.395-5.93c-3.835-2.999-7.62-6.062-11.373-9.163c-3.673-3.034-7.352-6.052-10.896-9.238
			c-0.832-0.747-2.676-2.07-4.06-3.417c3.83,0.82,7.776,1.296,11.771,1.512c4.393,5.15,9.086,9.988,14.013,14.642
			c3.752,3.543,7.83,8.091,12.235,11.471C112.595,183.494,110.827,183.553,109.064,183.579z M120.934,183.289
			c-3.495-5.054-9.565-8.881-14.156-12.846c-4.847-4.185-9.574-8.449-14.036-13.014c2.13-0.023,4.182-0.175,6.201-0.38
			c0.072,0.17,0.182,0.331,0.34,0.474c5.532,5.004,10.616,10.478,15.996,15.643c3.132,3.006,7.01,7.051,11.212,9.652
			C124.301,183.036,122.385,183.221,120.934,183.289z M134.193,182.112c-0.076-0.108-0.131-0.221-0.234-0.324
			c-4.995-4.946-11.677-8.559-17.036-13.266c-4.646-4.081-9.252-8.187-14.084-12.043c2.041-0.337,4.003-0.793,5.921-1.312
			c0.075,0.191,0.188,0.376,0.388,0.53c5.656,4.419,10.785,9.437,15.859,14.504c3.662,3.657,7.366,8.354,11.657,11.742
			C135.834,181.994,135.006,182.05,134.193,182.112z M155.851,183.503c-0.01,0.021-0.009,0.045-0.018,0.066
			c-3.23-1.318-7.578-1.782-12.169-1.826c-3.991-5.629-10.392-10.114-15.45-14.75c-5.097-4.671-10.377-9.017-16.119-12.852
			c4.434-1.503,8.485-3.529,12.182-5.972c-0.168,0.897,0.705,1.729,1.713,1.263c-1.15,0.533,0.146,1.001,1.044,1.784
			c1.211,1.057,2.349,2.197,3.514,3.304c3.208,3.044,6.382,6.122,9.574,9.183c5.167,4.955,10.739,12.193,17.179,15.635
			C156.938,180.718,156.49,182.104,155.851,183.503z M125.642,147.271c1.219-0.863,2.38-1.791,3.512-2.751
			c0.181,0.213,0.406,0.384,0.693,0.402c4.855,0.31,10.232,6.448,13.425,9.529c4.362,4.211,8.06,10.492,13.073,13.831
			c0.427,0.284,0.896,0.377,1.353,0.329c0.291,1.601,0.453,3.217,0.436,4.854C150.817,166.258,131.007,147.812,125.642,147.271z
			 M152.31,155.574c-2.606-2.428-5.386-4.633-7.596-6.457c-3.475-2.866-8.456-7.219-13.275-6.635
			c1.816-1.742,3.506-3.618,5.061-5.62C141.942,142.355,147.992,148.676,152.31,155.574z M95.019,150.205
			c-34.422,3.534-59.611-20.556-58.828-54.115c19.606,0.455,39.27-2.626,58.863-3.152c16.1-0.433,32.213,0.201,48.322,0.667
			C141.926,124.726,127.929,146.826,95.019,150.205z M152.088,102.204c3.922-1.267,7.009,0.113,6.215,4.671
			c-1.033,5.931-5.918,7.454-11.018,7.973c1.141-4.132,1.951-8.447,2.409-12.917C150.316,102.353,151.127,102.516,152.088,102.204z
			 M164.833,86.663c-0.088,0.051-0.131,0.131-0.211,0.188c-0.276-0.064-0.52-0.173-0.838-0.175
			c-22.917-0.131-45.81-1.322-68.73-1.05c-23.141,0.274-46.382,3.208-69.465,4.965c-0.062-0.103-0.059-0.223-0.16-0.312
			c-8.855-7.79,6.464-12.635,9.776-13.594c9.297-2.692,20.816-1.649,30.418-1.319c14.743,0.506,29.289,1.943,44.068,1.647
			c12.48-0.25,25.527-2.329,37.927-0.423C152.037,77.269,174.152,81.316,164.833,86.663z"/>
		<path d="M58.405,99.654c-2.419,0-4.364,2.425-3.652,4.794c0.647,2.156,1.126,3.917,2.612,5.688
			c0.78,0.929,2.321,1.007,3.311,0.427c1.156-0.677,1.434-1.85,1.256-3.086c-0.137-0.954-0.121-2.112,0.126-3.03
			C62.697,102.071,60.878,99.654,58.405,99.654z"/>
		<path d="M130.295,104.243c-0.032-0.214-0.062-0.427-0.095-0.641c-0.004-0.042-0.013-0.112-0.033-0.28
			c-0.104-0.905-0.262-1.579-0.65-2.408c-0.521-1.112-2.017-1.845-3.241-1.845c-1.195,0-2.389,0.838-2.978,1.845
			c-0.979,1.672-0.281,3.274,0.409,4.863c0.735,1.693,1.311,3.002,2.094,4.644c1.038,2.176,4.146,1.358,4.785-0.625
			C131.156,108.022,130.564,106.033,130.295,104.243z"/>
		<path d="M111.55,114c-1.819-1.767-4.481-0.809-5.302,1.399c-1.516,4.087,0.229,7.745-2.433,11.805
			c-2.142,3.267-6.407,4.805-10.019,5.577c-9.916,2.123-16.034-4.307-17.439-13.483c-0.31-2.026-3.238-1.69-3.759,0
			c-4.231,13.736,8.583,22.673,21.169,21.314c6.258-0.675,12.399-3.552,16.311-8.575C113.559,127.566,116.169,118.481,111.55,114z"
			/>
		<path d="M152.766,179.674c-2.604-5.104-9.565-9.328-13.78-13.214c-5.255-4.847-10.516-9.888-16.606-13.684
			c-1.08-0.673-2.328,0.912-1.366,1.771c5.271,4.706,10.298,9.594,15.196,14.688c4.017,4.178,8.852,11.344,14.615,12.964
			C152.344,182.628,153.433,180.981,152.766,179.674z"/>
	</g>
</g>
<g>
</g>
<g>
</g>
<g>
</g>
<g>
</g>
<g>
</g>
<g>
</g>
<g>
</g>
<g>
</g>
<g>
</g>
<g>
</g>
<g>
</g>
<g>
</g>
<g>
</g>
<g>
</g>
<g>
</g>
</svg>
